<svg id="SvgjsSvg1081" width="288" height="288" xmlns="http://www.w3.org/2000/svg" version="1.1" xmlns:xlink="http://www.w3.org/1999/xlink" xmlns:svgjs="http://svgjs.com/svgjs"><defs id="SvgjsDefs1082"></defs><g id="SvgjsG1083"><svg xmlns="http://www.w3.org/2000/svg" data-name="Layer 1" viewBox="0 0 512 512" width="288" height="288"><path fill="#303a52" d="M416.51318,95.48682A226.99992,226.99992,0,1,0,95.48682,416.51318,226.99992,226.99992,0,1,0,416.51318,95.48682ZM256,468C139.103,468,44,372.897,44,256S139.103,44,256,44s212,95.103,212,212S372.897,468,256,468ZM137.5,202a7.50006,7.50006,0,0,0,7.5-7.5,20.5,20.5,0,0,1,41,0,7.5,7.5,0,0,0,15,0,35.5,35.5,0,0,0-71,0A7.50006,7.50006,0,0,0,137.5,202Zm181,0a7.50006,7.50006,0,0,0,7.5-7.5,20.5,20.5,0,0,1,41,0,7.5,7.5,0,0,0,15,0,35.5,35.5,0,0,0-71,0A7.50006,7.50006,0,0,0,318.5,202Zm69.95947,82.13037a7.49875,7.49875,0,0,0-7.27832-.356A284.51645,284.51645,0,0,1,257.5,313h-1.48a284.55042,284.55042,0,0,1-125.2002-29.2251A7.4999,7.4999,0,0,0,120,290.5a132.31839,132.31839,0,0,0,79.15625,121.32324A131.47888,131.47888,0,0,0,252.5,423h7a132.5854,132.5854,0,0,0,127.794-97.37988A133.06894,133.06894,0,0,0,392,290.5,7.5003,7.5003,0,0,0,388.45947,284.13037ZM259.5,408h-7a116.58888,116.58888,0,0,1-46.02222-9.36157C219.72205,391.8783,237.33752,388,256.002,388c18.66236,0,36.27466,3.87708,49.51734,10.63538A116.56076,116.56076,0,0,1,259.5,408Zm83.08691-34.41309a117.56809,117.56809,0,0,1-21.38024,16.93219C305.07166,379.48517,281.17847,373,256.002,373c-25.18383,0-49.0852,6.48932-65.22168,17.52966a116.81051,116.81051,0,0,1-46.07495-53.13611,299.90773,299.90773,0,0,0,111.31323,21.61036c.5044,0,1.01612-.00147,1.52051-.00391A300.023,300.023,0,0,0,367.2478,337.40454,117.86031,117.86031,0,0,1,342.58691,373.58691ZM373.6593,318.347A284.8703,284.8703,0,0,1,257.46094,344c-.49219.00293-.97412.00391-1.46387.00391a284.90227,284.90227,0,0,1-117.65942-25.65967,117.74477,117.74477,0,0,1-2.72388-15.77832A299.64178,299.64178,0,0,0,256.02,328h1.519a299.80874,299.80874,0,0,0,118.84668-25.43555A117.6884,117.6884,0,0,1,373.6593,318.347Z" class="color2c2b2d svgShape"></path></svg></g></svg>